<?xml version="1.0" encoding="utf-8"?>
<!-- Generator: Adobe Illustrator 26.2.1, SVG Export Plug-In . SVG Version: 6.00 Build 0)  -->
<svg version="1.1" id="Capa_1" xmlns="http://www.w3.org/2000/svg" xmlns:xlink="http://www.w3.org/1999/xlink" x="0px" y="0px"
	 viewBox="0 0 400 400" style="enable-background:new 0 0 400 400;" xml:space="preserve">
<style type="text/css">
	.st0{fill:#274294;stroke:#253787;stroke-miterlimit:10;}
</style>
<g transform="translate(0.000000,400.000000) scale(0.100000,-0.100000)">
	<path class="st0" d="M1790,3989c-678-76-1273-492-1585-1109c-40-80-58-76,210-49c61,6,118,12,128,12c17,1,18,10,10,152
		c-9,180-9,222,0,231c4,4,33,11,65,15c76,10,179,26,277,44c44,8,150,26,235,40s180,30,210,36s68,13,85,15c16,2,55,8,85,14
		c30,5,71,12,90,15c47,8,199,35,230,40c78,15,140,17,218,7c91-12,189-24,357-42c55-6,136-15,180-20s103-12,130-15c28-3,82-10,120-15
		c39-5,117-14,175-20c194-20,284-31,397-46c62-9,118-14,124-12c8,3-37,55-102,119c-333,336-752,537-1221,588
		C2097,4002,1900,4001,1790,3989z"/>
	<path class="st0" d="M1982,3385c0-16,2-22,5-12c2,9,2,23,0,30C1984,3409,1982,3402,1982,3385z"/>
	<path class="st0" d="M2008,3363c7-3,16-2,19,1c4,3-2,6-13,5C2003,3369,2000,3366,2008,3363z"/>
	<path class="st0" d="M2043,3323c9-2,25-2,35,0c9,3,1,5-18,5S2033,3326,2043,3323z"/>
	<path class="st0" d="M2113,3313c9-2,23-2,30,0c6,3-1,5-18,5C2109,3318,2103,3316,2113,3313z"/>
	<path class="st0" d="M2165,3310c3-5,15-10,26-10c10,0,19,5,19,10c0,6-12,10-26,10S2161,3316,2165,3310z"/>
	<path class="st0" d="M2243,3303c9-2,25-2,35,0c9,3,1,5-18,5S2233,3306,2243,3303z"/>
	<path class="st0" d="M2313,3293c9-2,23-2,30,0c6,3-1,5-18,5C2309,3298,2303,3296,2313,3293z"/>
	<path class="st0" d="M2400,3289c-30-5-26-7,23-8c31,0,57,1,57,3C2480,3292,2433,3295,2400,3289z"/>
	<path class="st0" d="M1810,3280c0-12,44-12,80,0c20,6,14,8-27,9C1834,3290,1810,3286,1810,3280z"/>
	<path class="st0" d="M2088,3283c17-2,47-2,65,0c17,2,3,4-33,4S2070,3285,2088,3283z"/>
	<path class="st0" d="M2203,3273c9-2,25-2,35,0c9,3,1,5-18,5S2193,3276,2203,3273z"/>
	<path class="st0" d="M2503,3273c9-2,25-2,35,0c9,3,1,5-18,5S2493,3276,2503,3273z"/>
	<path class="st0" d="M2033,3263c9-2,23-2,30,0c6,3-1,5-18,5C2029,3268,2023,3266,2033,3263z"/>
	<path class="st0" d="M2298,3263c18-2,45-2,60,0s0,4-33,4S2280,3265,2298,3263z"/>
	<path class="st0" d="M2588,3263c18-2,45-2,60,0s0,4-33,4S2570,3265,2588,3263z"/>
	<path class="st0" d="M2103,3253c9-2,25-2,35,0c9,3,1,5-18,5S2093,3256,2103,3253z"/>
	<path class="st0" d="M2413,3253c9-2,23-2,30,0c6,3-1,5-18,5C2409,3258,2403,3256,2413,3253z"/>
	<path class="st0" d="M2708,3253c6-2,18-2,25,0c6,3,1,5-13,5S2701,3256,2708,3253z"/>
	<path class="st0" d="M2173,3243c9-2,25-2,35,0c9,3,1,5-18,5S2163,3246,2173,3243z"/>
	<path class="st0" d="M2235,3240c3-5,15-10,26-10c10,0,19,5,19,10c0,6-12,10-26,10S2231,3246,2235,3240z"/>
	<path class="st0" d="M2483,3243c9-2,23-2,30,0c6,3-1,5-18,5C2479,3248,2473,3246,2483,3243z"/>
	<path class="st0" d="M2535,3240c3-5,15-10,26-10c10,0,19,5,19,10c0,6-12,10-26,10S2531,3246,2535,3240z"/>
	<path class="st0" d="M2768,3243c6-2,18-2,25,0c6,3,1,5-13,5S2761,3246,2768,3243z"/>
	<path class="st0" d="M2313,3233c9-2,23-2,30,0c6,3-1,5-18,5C2309,3238,2303,3236,2313,3233z"/>
	<path class="st0" d="M2608,3233c6-2,18-2,25,0c6,3,1,5-13,5S2601,3236,2608,3233z"/>
	<path class="st0" d="M2063,3223c9-2,25-2,35,0c9,3,1,5-18,5S2053,3226,2063,3223z"/>
	<path class="st0" d="M2383,3223c9-2,23-2,30,0c6,3-1,5-18,5C2379,3228,2373,3226,2383,3223z"/>
	<path class="st0" d="M2683,3223c9-2,23-2,30,0c6,3-1,5-18,5C2679,3228,2673,3226,2683,3223z"/>
	<path class="st0" d="M2158,3213c17-2,47-2,65,0c17,2,3,4-33,4S2140,3215,2158,3213z"/>
	<path class="st0" d="M2468,3213c18-2,45-2,60,0s0,4-33,4S2450,3215,2468,3213z"/>
	<path class="st0" d="M2763,3213c9-2,25-2,35,0c9,3,1,5-18,5S2753,3216,2763,3213z"/>
	<path class="st0" d="M2273,3203c9-2,25-2,35,0c9,3,1,5-18,5S2263,3206,2273,3203z"/>
	<path class="st0" d="M2593,3203c9-2,23-2,30,0c6,3-1,5-18,5C2589,3208,2583,3206,2593,3203z"/>
	<path class="st0" d="M2048,3193c17-2,47-2,65,0c17,2,3,4-33,4S2030,3195,2048,3193z"/>
	<path class="st0" d="M2368,3193c17-2,47-2,65,0c17,2,3,4-33,4S2350,3195,2368,3193z"/>
	<path class="st0" d="M2673,3193c15-2,39-2,55,0c15,2,2,4-28,4S2657,3195,2673,3193z"/>
	<path class="st0" d="M2173,3183c9-2,23-2,30,0c6,3-1,5-18,5C2169,3188,2163,3186,2173,3183z"/>
	<path class="st0" d="M2493,3183c9-2,23-2,30,0c6,3-1,5-18,5C2489,3188,2483,3186,2493,3183z"/>
	<path class="st0" d="M2798,3183c7-3,16-2,19,1c4,3-2,6-13,5C2793,3189,2790,3186,2798,3183z"/>
	<path class="st0" d="M2243,3173c9-2,25-2,35,0c9,3,1,5-18,5S2233,3176,2243,3173z"/>
	<path class="st0" d="M2305,3170c3-5,17-10,31-10s22,4,19,10s-17,10-31,10S2302,3176,2305,3170z"/>
	<path class="st0" d="M2563,3173c9-2,23-2,30,0c6,3-1,5-18,5C2559,3178,2553,3176,2563,3173z"/>
	<path class="st0" d="M2625,3170c3-5,15-10,26-10s17,5,14,10c-3,6-15,10-26,10S2622,3176,2625,3170z"/>
	<path class="st0" d="M2053,3163c9-2,25-2,35,0c9,3,1,5-18,5S2043,3166,2053,3163z"/>
	<path class="st0" d="M2383,3163c9-2,25-2,35,0c9,3,1,5-18,5S2373,3166,2383,3163z"/>
	<path class="st0" d="M2708,3163c6-2,18-2,25,0c6,3,1,5-13,5S2701,3166,2708,3163z"/>
	<path class="st0" d="M2133,3153c9-2,25-2,35,0c9,3,1,5-18,5S2123,3156,2133,3153z"/>
	<path class="st0" d="M2463,3153c9-2,25-2,35,0c9,3,1,5-18,5S2453,3156,2463,3153z"/>
	<path class="st0" d="M2788,3153c6-2,18-2,25,0c6,3,1,5-13,5S2781,3156,2788,3153z"/>
	<path class="st0" d="M2227,3143c18-2,50-2,70,0c21,2,7,4-32,4C2227,3147,2210,3145,2227,3143z"/>
	<path class="st0" d="M2558,3143c18-2,45-2,60,0s0,4-33,4S2540,3145,2558,3143z"/>
	<path class="st0" d="M2868,3143c12-2,30-2,40,0c9,3-1,5-23,4C2863,3147,2855,3145,2868,3143z"/>
	<path class="st0" d="M2028,3133c6-2,18-2,25,0c6,3,1,5-13,5S2021,3136,2028,3133z"/>
	<path class="st0" d="M2353,3133c9-2,25-2,35,0c9,3,1,5-18,5S2343,3136,2353,3133z"/>
	<path class="st0" d="M2688,3133c6-2,18-2,25,0c6,3,1,5-13,5S2681,3136,2688,3133z"/>
	<path class="st0" d="M2107,3123c18-2,50-2,70,0c21,2,7,4-32,4C2107,3127,2090,3125,2107,3123z"/>
	<path class="st0" d="M2448,3123c17-2,47-2,65,0c17,2,3,4-33,4S2430,3125,2448,3123z"/>
	<path class="st0" d="M2778,3123c18-2,45-2,60,0s0,4-33,4S2760,3125,2778,3123z"/>
	<path class="st0" d="M2238,3113c12-2,30-2,40,0c9,3-1,5-23,4C2233,3117,2225,3115,2238,3113z"/>
	<path class="st0" d="M2583,3113c9-2,23-2,30,0c6,3-1,5-18,5C2579,3118,2573,3116,2583,3113z"/>
	<path class="st0" d="M2030,3100c0-5,14-10,31-10s28,4,24,10c-3,6-17,10-31,10C2041,3110,2030,3106,2030,3100z"/>
	<path class="st0" d="M2323,3103c9-2,25-2,35,0c9,3,1,5-18,5S2313,3106,2323,3103z"/>
	<path class="st0" d="M2385,3100c3-5,17-10,31-10c13,0,24,5,24,10c0,6-14,10-31,10S2381,3106,2385,3100z"/>
	<path class="st0" d="M2663,3103c9-2,23-2,30,0c6,3-1,5-18,5C2659,3108,2653,3106,2663,3103z"/>
	<path class="st0" d="M2725,3100c3-5,15-10,26-10c10,0,19,5,19,10c0,6-12,10-26,10S2721,3106,2725,3100z"/>
	<path class="st0" d="M633,3092c-18-2-33-7-33-13c0-10,23-10,60,0C692,3088,674,3096,633,3092z"/>
	<path class="st0" d="M2123,3093c9-2,25-2,35,0c9,3,1,5-18,5S2113,3096,2123,3093z"/>
	<path class="st0" d="M2473,3093c9-2,25-2,35,0c9,3,1,5-18,5S2463,3096,2473,3093z"/>
	<path class="st0" d="M2808,3093c6-2,18-2,25,0c6,3,1,5-13,5S2801,3096,2808,3093z"/>
	<path class="st0" d="M2203,3083c9-2,25-2,35,0c9,3,1,5-18,5S2193,3086,2203,3083z"/>
	<path class="st0" d="M2553,3083c9-2,25-2,35,0c9,3,1,5-18,5S2543,3086,2553,3083z"/>
	<path class="st0" d="M2303,3073c20-2,54-2,75,0c20,2,3,4-38,4S2282,3075,2303,3073z"/>
	<path class="st0" d="M2658,3073c18-2,45-2,60,0s0,4-33,4S2640,3075,2658,3073z"/>
	<path class="st0" d="M2998,3073c7-3,16-2,19,1c4,3-2,6-13,5C2993,3079,2990,3076,2998,3073z"/>
	<path class="st0" d="M2073,3063c9-2,25-2,35,0c9,3,1,5-18,5S2063,3066,2073,3063z"/>
	<path class="st0" d="M2443,3063c9-2,25-2,35,0c9,3,1,5-18,5S2433,3066,2443,3063z"/>
	<path class="st0" d="M2788,3063c6-2,18-2,25,0c6,3,1,5-13,5S2781,3066,2788,3063z"/>
	<path class="st0" d="M2183,3053c20-2,54-2,75,0c20,2,3,4-38,4S2162,3055,2183,3053z"/>
	<path class="st0" d="M2537,3053c18-2,50-2,70,0c21,2,7,4-32,4C2537,3057,2520,3055,2537,3053z"/>
	<path class="st0" d="M2883,3053c15-2,37-2,50,0c12,2,0,4-28,4C2878,3057,2867,3055,2883,3053z"/>
	<path class="st0" d="M2318,3043c12-2,30-2,40,0c9,3-1,5-23,4C2313,3047,2305,3045,2318,3043z"/>
	<path class="st0" d="M2683,3043c9-2,23-2,30,0c6,3-1,5-18,5C2679,3048,2673,3046,2683,3043z"/>
	<path class="st0" d="M2033,3033c9-2,25-2,35,0c9,3,1,5-18,5S2023,3036,2033,3033z"/>
	<path class="st0" d="M2095,3030c3-5,19-10,36-10c16,0,29,5,29,10c0,6-16,10-36,10C2103,3040,2091,3036,2095,3030z"/>
	<path class="st0" d="M2413,3033c9-2,23-2,30,0c6,3-1,5-18,5C2409,3038,2403,3036,2413,3033z"/>
	<path class="st0" d="M2475,3030c3-5,17-10,31-10c13,0,24,5,24,10c0,6-14,10-31,10S2471,3036,2475,3030z"/>
	<path class="st0" d="M2768,3033c6-2,18-2,25,0c6,3,1,5-13,5S2761,3036,2768,3033z"/>
	<path class="st0" d="M2840,3030c0-5,9-10,21-10c11,0,17,5,14,10c-3,6-13,10-21,10S2840,3036,2840,3030z"/>
	<path class="st0" d="M2198,3023c12-2,30-2,40,0c9,3-1,5-23,4C2193,3027,2185,3025,2198,3023z"/>
	<path class="st0" d="M2573,3023c9-2,25-2,35,0c9,3,1,5-18,5S2563,3026,2573,3023z"/>
	<path class="st0" d="M2288,3013c12-2,30-2,40,0c9,3-1,5-23,4C2283,3017,2275,3015,2288,3013z"/>
	<path class="st0" d="M2663,3013c9-2,23-2,30,0c6,3-1,5-18,5C2659,3018,2653,3016,2663,3013z"/>
	<path class="st0" d="M2048,3003c12-2,32-2,45,0c12,2,2,4-23,4S2035,3005,2048,3003z"/>
	<path class="st0" d="M2397,3003c18-2,50-2,70,0c21,2,7,4-32,4C2397,3007,2380,3005,2397,3003z"/>
	<path class="st0" d="M2768,3003c18-2,45-2,60,0s0,4-33,4S2750,3005,2768,3003z"/>
	<path class="st0" d="M2158,2993c12-2,30-2,40,0c9,3-1,5-23,4C2153,2997,2145,2995,2158,2993z"/>
	<path class="st0" d="M2543,2993c9-2,23-2,30,0c6,3-1,5-18,5C2539,2998,2533,2996,2543,2993z"/>
	<path class="st0" d="M2908,2993c6-2,18-2,25,0c6,3,1,5-13,5S2901,2996,2908,2993z"/>
	<path class="st0" d="M2268,2983c23-2,59-2,80,0c20,2,1,4-43,4S2244,2985,2268,2983z"/>
	<path class="st0" d="M2647,2983c18-2,50-2,70,0c21,2,7,4-32,4C2647,2987,2630,2985,2647,2983z"/>
	<path class="st0" d="M3023,2983c9-2,25-2,35,0c9,3,1,5-18,5S3013,2986,3023,2983z"/>
	<path class="st0" d="M2028,2973c6-2,18-2,25,0c6,3,1,5-13,5S2021,2976,2028,2973z"/>
	<path class="st0" d="M2418,2973c12-2,30-2,40,0c9,3-1,5-23,4C2413,2977,2405,2975,2418,2973z"/>
	<path class="st0" d="M2798,2973c6-2,18-2,25,0c6,3,1,5-13,5S2791,2976,2798,2973z"/>
	<path class="st0" d="M2108,2963c12-2,30-2,40,0c9,3-1,5-23,4C2103,2967,2095,2965,2108,2963z"/>
	<path class="st0" d="M2185,2960c3-5,19-10,36-10c16,0,29,5,29,10c0,6-16,10-36,10C2193,2970,2181,2966,2185,2960z"/>
	<path class="st0" d="M2513,2963c9-2,25-2,35,0c9,3,1,5-18,5S2503,2966,2513,2963z"/>
	<path class="st0" d="M2585,2960c3-5,17-10,31-10s22,4,19,10s-17,10-31,10S2582,2966,2585,2960z"/>
	<path class="st0" d="M2888,2963c6-2,18-2,25,0c6,3,1,5-13,5S2881,2966,2888,2963z"/>
	<path class="st0" d="M2293,2953c9-2,25-2,35,0c9,3,1,5-18,5S2283,2956,2293,2953z"/>
	<path class="st0" d="M2683,2953c9-2,25-2,35,0c9,3,1,5-18,5S2673,2956,2683,2953z"/>
	<path class="st0" d="M2388,2943c12-2,30-2,40,0c9,3-1,5-23,4C2383,2947,2375,2945,2388,2943z"/>
	<path class="st0" d="M2783,2943c9-2,23-2,30,0c6,3-1,5-18,5C2779,2948,2773,2946,2783,2943z"/>
	<path class="st0" d="M2078,2933c23-2,61-2,85,0c23,2,4,4-43,4S2054,2935,2078,2933z"/>
	<path class="st0" d="M2498,2933c23-2,59-2,80,0c20,2,1,4-43,4S2474,2935,2498,2933z"/>
	<path class="st0" d="M2888,2933c17-2,47-2,65,0c17,2,3,4-33,4S2870,2935,2888,2933z"/>
	<path class="st0" d="M2238,2923c12-2,32-2,45,0c12,2,2,4-23,4S2225,2925,2238,2923z"/>
	<path class="st0" d="M2648,2923c12-2,30-2,40,0c9,3-1,5-23,4C2643,2927,2635,2925,2648,2923z"/>
	<path class="st0" d="M2028,2913c7-3,16-2,19,1c4,3-2,6-13,5C2023,2919,2020,2916,2028,2913z"/>
	<path class="st0" d="M2358,2913c23-2,61-2,85,0c23,2,4,4-43,4S2334,2915,2358,2913z"/>
	<path class="st0" d="M2767,2913c18-2,50-2,70,0c21,2,7,4-32,4C2767,2917,2750,2915,2767,2913z"/>
	<path class="st0" d="M3188,2913c7-3,16-2,19,1c4,3-2,6-13,5C3183,2919,3180,2916,3188,2913z"/>
	<path class="st0" d="M2088,2903c12-2,32-2,45,0c12,2,2,4-23,4S2075,2905,2088,2903z"/>
	<path class="st0" d="M2523,2903c9-2,25-2,35,0c9,3,1,5-18,5S2513,2906,2523,2903z"/>
	<path class="st0" d="M2933,2903c9-2,23-2,30,0c6,3-1,5-18,5C2929,2908,2923,2906,2933,2903z"/>
	<path class="st0" d="M2198,2893c12-2,32-2,45,0c12,2,2,4-23,4S2185,2895,2198,2893z"/>
	<path class="st0" d="M2280,2890c0-5,14-10,30-10c17,0,30,5,30,10c0,6-13,10-30,10C2294,2900,2280,2896,2280,2890z"/>
	<path class="st0" d="M2623,2893c9-2,25-2,35,0c9,3,1,5-18,5S2613,2896,2623,2893z"/>
	<path class="st0" d="M2705,2890c3-5,17-10,31-10c13,0,24,5,24,10c0,6-14,10-31,10S2701,2896,2705,2890z"/>
	<path class="st0" d="M2388,2883c12-2,32-2,45,0c12,2,2,4-23,4S2375,2885,2388,2883z"/>
	<path class="st0" d="M2813,2883c9-2,23-2,30,0c6,3-1,5-18,5C2809,2888,2803,2886,2813,2883z"/>
	<path class="st0" d="M2048,2873c12-2,30-2,40,0c9,3-1,5-23,4C2043,2877,2035,2875,2048,2873z"/>
	<path class="st0" d="M2120,2870c0-6,37-10,92-10c50,0,89,2,87,4C2288,2873,2120,2879,2120,2870z"/>
	<path class="st0" d="M2488,2873c12-2,30-2,40,0c9,3-1,5-23,4C2483,2877,2475,2875,2488,2873z"/>
	<path class="st0" d="M2580,2868c0-4,35-7,78-7c85,1,80,6-15,12C2608,2875,2580,2873,2580,2868z"/>
	<path class="st0" d="M2913,2873c9-2,23-2,30,0c6,3-1,5-18,5C2909,2878,2903,2876,2913,2873z"/>
	<path class="st0" d="M3007,2868c-7-4,9-8,36-8c26,0,47,2,47,4C3090,2872,3019,2876,3007,2868z"/>
	<path class="st0" d="M2010,2820c0-19,4-30,8-24c4,7,16,14,27,17c18,4,18,5-2,6c-45,2-22,20,30,23l52,3l-58,5l-57,5V2820z"/>
	<path class="st0" d="M2338,2853c12-2,32-2,45,0c12,2,2,4-23,4S2325,2855,2338,2853z"/>
	<path class="st0" d="M2788,2853c12-2,30-2,40,0c9,3-1,5-23,4C2783,2857,2775,2855,2788,2853z"/>
	<path class="st0" d="M2473,2843c26-2,67-2,90,0s2,3-48,3C2466,2846,2447,2845,2473,2843z"/>
	<path class="st0" d="M2913,2843c20-2,54-2,75,0c20,2,3,4-38,4S2892,2845,2913,2843z"/>
	<path class="st0" d="M3348,2843c7-3,16-2,19,1c4,3-2,6-13,5C3343,2849,3340,2846,3348,2843z"/>
	<path class="st0" d="M2168,2833c12-2,32-2,45,0c12,2,2,4-23,4S2155,2835,2168,2833z"/>
	<path class="st0" d="M2648,2833c12-2,30-2,40,0c9,3-1,5-23,4C2643,2837,2635,2835,2648,2833z"/>
	<path class="st0" d="M2288,2823c12-2,32-2,45,0c12,2,2,4-23,4S2275,2825,2288,2823z"/>
	<path class="st0" d="M2385,2820c3-5,22-10,41-10c21,0,33,4,29,10c-3,6-22,10-41,10C2393,2830,2381,2826,2385,2820z"/>
	<path class="st0" d="M2758,2823c12-2,30-2,40,0c9,3-1,5-23,4C2753,2827,2745,2825,2758,2823z"/>
	<path class="st0" d="M2855,2820c3-5,15-10,26-10c10,0,19,5,19,10c0,6-12,10-26,10S2851,2826,2855,2820z"/>
	<path class="st0" d="M2508,2813c12-2,30-2,40,0c9,3-1,5-23,4C2503,2817,2495,2815,2508,2813z"/>
	<path class="st0" d="M2963,2813c9-2,25-2,35,0c9,3,1,5-18,5S2953,2816,2963,2813z"/>
	<path class="st0" d="M2118,2803c12-2,32-2,45,0c12,2,2,4-23,4S2105,2805,2118,2803z"/>
	<path class="st0" d="M2210,2799c0-5,46-9,102-9s99,2,97,4C2399,2802,2210,2808,2210,2799z"/>
	<path class="st0" d="M2618,2803c12-2,32-2,45,0c12,2,2,4-23,4S2605,2805,2618,2803z"/>
	<path class="st0" d="M2700,2799c0-5,41-9,92-9c50,0,89,2,87,4C2870,2802,2700,2807,2700,2799z"/>
	<path class="st0" d="M3078,2803c7-3,16-2,19,1c4,3-2,6-13,5C3073,2809,3070,2806,3078,2803z"/>
	<path class="st0" d="M3218,2793c12-2,30-2,40,0c9,3-1,5-23,4C3213,2797,3205,2795,3218,2793z"/>
	<path class="st0" d="M2453,2783c15-2,39-2,55,0c15,2,2,4-28,4S2437,2785,2453,2783z"/>
	<path class="st0" d="M2943,2783c9-2,25-2,35,0c9,3,1,5-18,5S2933,2786,2943,2783z"/>
	<path class="st0" d="M1318,2773c29-2,74-2,100,0s2,3-53,3S1289,2775,1318,2773z"/>
	<path class="st0" d="M2078,2773c29-2,74-2,100,0s2,3-53,3S2049,2775,2078,2773z"/>
	<path class="st0" d="M2598,2773c28-2,76-2,105,0c28,2,5,3-53,3S2569,2775,2598,2773z"/>
	<path class="st0" d="M3068,2773c18-2,45-2,60,0s0,4-33,4S3050,2775,3068,2773z"/>
	<path class="st0" d="M2283,2763c15-2,37-2,50,0c12,2,0,4-28,4C2278,2767,2267,2765,2283,2763z"/>
	<path class="st0" d="M2808,2763c12-2,30-2,40,0c9,3-1,5-23,4C2803,2767,2795,2765,2808,2763z"/>
	<path class="st0" d="M291,2741l-154-16l-13-35c-22-62-23-62,73-58c62,2,87,0,90-9c3-8-4-13-16-13c-14,0-21-6-21-20
		c0-23,30-33,81-28c29,2,34,7,34,28s-6,26-35,31c-22,4-4,6,45,5l80-1l-3-195c-2-107-6-198-8-202c-3-5-22-6-42-2c-54,8-165-11-219-38
		c-26-13-70-47-99-75c-28-29-59-53-68-53c-13,0-16-11-16-55v-55l188-2c145-2,186-6,184-16c-1-7,9-18,23-24c19-8,22-14,13-20
		c-8-5-2-8,18-8c33,0,71,31,59,49c-3,6-17,11-31,11c-13,0-24,5-24,11c0,5,4,8,9,4c9-5,154,36,201,57c50,23,88,58,94,85
		c3,16,8,46,11,68c5,40,8,54,46,245c11,58,22,114,24,126c1,12,8,45,15,75c18,82,12,111-30,131c-29,15-61,18-195,17
		C517,2758,376,2750,291,2741z M401,2190c40,0,16-19-38-30c-73-15-101-25-187-67c-76-37-76-37-76-24c0,21,57,75,100,95
		c43,19,141,37,168,29C376,2192,390,2190,401,2190z"/>
	<path class="st0" d="M2020,2750c0-5,7-10,15-10s15,5,15,10c0,6-7,10-15,10S2020,2756,2020,2750z"/>
	<path class="st0" d="M2413,2753c15-2,37-2,50,0c12,2,0,4-28,4C2408,2757,2397,2755,2413,2753z"/>
	<path class="st0" d="M2515,2750c3-5,24-10,46-10c24,0,38,4,34,10c-3,6-24,10-46,10C2525,2760,2511,2756,2515,2750z"/>
	<path class="st0" d="M2913,2753c9-2,25-2,35,0c9,3,1,5-18,5S2903,2756,2913,2753z"/>
	<path class="st0" d="M3025,2750c3-5,15-10,26-10c10,0,19,5,19,10c0,6-12,10-26,10S3021,2756,3025,2750z"/>
	<path class="st0" d="M2103,2743c15-2,37-2,50,0c12,2,0,4-28,4C2098,2747,2087,2745,2103,2743z"/>
	<path class="st0" d="M2648,2743c12-2,32-2,45,0c12,2,2,4-23,4S2635,2745,2648,2743z"/>
	<path class="st0" d="M924,2718l-19-23l23,19c21,18,27,26,19,26C945,2740,935,2730,924,2718z"/>
	<path class="st0" d="M2223,2733c15-2,37-2,50,0c12,2,0,4-28,4C2218,2737,2207,2735,2223,2733z"/>
	<path class="st0" d="M2330,2729c0-5,48-9,112-9c61,0,109,2,107,4C2539,2733,2330,2738,2330,2729z"/>
	<path class="st0" d="M2773,2733c15-2,37-2,50,0c12,2,0,4-28,4C2768,2737,2757,2735,2773,2733z"/>
	<path class="st0" d="M2870,2728c0-4,42-8,93-7c50,0,88,2,82,4C3022,2733,2870,2736,2870,2728z"/>
	<path class="st0" d="M1058,2710c-72-7-91-17-115-64c-25-48-55-176-67-289c-3-26-8-33-30-35c-18-2-24,1-21,10c3,7,9,41,13,75
		c7,50,6,63-6,68c-21,8-22,7-22-19c0-14-5-47-12-75c-8-36-8-55-1-62s8-25,3-47c-11-50-21-307-13-298c4,4,6,23,4,42c-3,38-3,38,33,24
		c21-8,26-16,26-44c0-61-15-67-163-64c-119,3-132,1-135-14c-3-14,3-18,27-18c20,0,34-7,41-20c6-11,15-20,21-20s6,7-1,19
		c-14,27-6,29,75,22c47-4,80-2,102,6c31,12,32,12,38-17c4-17,13-30,21-30s107,47,221,103c314,156,330,164,448,190c41,9,63,19,70,33
		c6,13,7,103,3,255l-7,234l-26,23c-25,21-31,22-243,21C1223,2718,1095,2714,1058,2710z M1487,2595c2-6-11-15-29-20
		c-42-13-68-62-68-130c0-44-4-55-33-82c-34-32-34-32-155-34c-82-1-126,2-135,10c-19,15-37,88-44,173c-5,64-5,67,18,73
		C1130,2607,1480,2614,1487,2595z"/>
	<path class="st0" d="M1085,2350c-3-5,1-10,9-10c9,0,16,5,16,10c0,6-4,10-9,10C1095,2360,1088,2356,1085,2350z"/>
	<path class="st0" d="M2038,2713c12-2,32-2,45,0c12,2,2,4-23,4S2025,2715,2038,2713z"/>
	<path class="st0" d="M2613,2713c15-2,37-2,50,0c12,2,0,4-28,4C2608,2717,2597,2715,2613,2713z"/>
	<path class="st0" d="M3123,2713c9-2,23-2,30,0c6,3-1,5-18,5C3119,2718,3113,2716,3123,2713z"/>
	<path class="st0" d="M2203,2703c32-2,81-2,110,0s3,3-58,3C2195,2706,2171,2705,2203,2703z"/>
	<path class="st0" d="M2768,2703c28-2,76-2,105,0c28,2,5,3-53,3S2739,2705,2768,2703z"/>
	<path class="st0" d="M3288,2703c12-2,32-2,45,0c12,2,2,4-23,4S3275,2705,3288,2703z"/>
	<path class="st0" d="M2433,2693c15-2,37-2,50,0c12,2,0,4-28,4C2428,2697,2417,2695,2433,2693z"/>
	<path class="st0" d="M2978,2693c12-2,32-2,45,0c12,2,2,4-23,4S2965,2695,2978,2693z"/>
	<path class="st0" d="M2070,2680c0-5,25-10,56-10c34,0,53,4,49,10c-3,6-28,10-56,10C2092,2690,2070,2686,2070,2680z"/>
	<path class="st0" d="M2563,2683c15-2,39-2,55,0c15,2,2,4-28,4S2547,2685,2563,2683z"/>
	<path class="st0" d="M2675,2680c3-5,24-10,46-10c21,0,39,5,39,10c0,6-21,10-46,10C2687,2690,2671,2686,2675,2680z"/>
	<path class="st0" d="M3113,2683c9-2,23-2,30,0c6,3-1,5-18,5C3109,2688,3103,2686,3113,2683z"/>
	<path class="st0" d="M2228,2673c12-2,32-2,45,0c12,2,2,4-23,4S2215,2675,2228,2673z"/>
	<path class="st0" d="M2823,2673c15-2,39-2,55,0c15,2,2,4-28,4S2807,2675,2823,2673z"/>
	<path class="st0" d="M2368,2663c18-2,45-2,60,0s0,4-33,4S2350,2665,2368,2663z"/>
	<path class="st0" d="M2490,2659c0-5,55-9,123-8c67,0,118,2,112,4C2701,2663,2490,2667,2490,2659z"/>
	<path class="st0" d="M2958,2663c12-2,32-2,45,0c12,2,2,4-23,4S2945,2665,2958,2663z"/>
	<path class="st0" d="M3070,2658c0-4,39-8,88-7c48,0,83,2,77,4C3211,2663,3070,2666,3070,2658z"/>
	<path class="st0" d="M2038,2653c12-2,30-2,40,0c9,3-1,5-23,4C2033,2657,2025,2655,2038,2653z"/>
	<path class="st0" d="M2153,2643c15-2,39-2,55,0c15,2,2,4-28,4S2137,2645,2153,2643z"/>
	<path class="st0" d="M2793,2643c15-2,39-2,55,0c15,2,2,4-28,4S2777,2645,2793,2643z"/>
	<path class="st0" d="M2333,2633c37-2,97-2,135,0c37,2,6,3-68,3S2295,2635,2333,2633z"/>
	<path class="st0" d="M2958,2633c28-2,76-2,105,0c28,2,5,3-53,3S2929,2635,2958,2633z"/>
	<path class="st0" d="M2598,2623c18-2,45-2,60,0s0,4-33,4S2580,2625,2598,2623z"/>
	<path class="st0" d="M2068,2613c17-2,47-2,65,0c17,2,3,4-33,4S2050,2615,2068,2613z"/>
	<path class="st0" d="M2195,2610c3-5,28-10,56-10c27,0,49,5,49,10c0,6-25,10-56,10C2210,2620,2191,2616,2195,2610z"/>
	<path class="st0" d="M2758,2613c18-2,45-2,60,0s0,4-33,4S2740,2615,2758,2613z"/>
	<path class="st0" d="M2885,2610c3-5,19-10,36-10c16,0,29,5,29,10c0,6-16,10-36,10C2893,2620,2881,2616,2885,2610z"/>
	<path class="st0" d="M2368,2603c17-2,47-2,65,0c17,2,3,4-33,4S2350,2605,2368,2603z"/>
	<path class="st0" d="M3038,2603c12-2,30-2,40,0c9,3-1,5-23,4C3033,2607,3025,2605,3038,2603z"/>
	<path class="st0" d="M2023,2588c-2-5,42-7,99-6c106,1,96,5-25,10C2059,2594,2026,2592,2023,2588z"/>
	<path class="st0" d="M2538,2593c17-2,47-2,65,0c17,2,3,4-33,4S2520,2595,2538,2593z"/>
	<path class="st0" d="M2660,2589c0-5,56-9,132-9c72,0,129,2,127,4C2909,2592,2660,2598,2660,2589z"/>
	<path class="st0" d="M2287,2573c18-2,50-2,70,0c21,2,7,4-32,4C2287,2577,2270,2575,2287,2573z"/>
	<path class="st0" d="M3003,2573c15-2,37-2,50,0c12,2,0,4-28,4C2998,2577,2987,2575,3003,2573z"/>
	<path class="st0" d="M2513,2563c43-2,110-2,150,0c40,1,5,3-78,3C2503,2566,2470,2564,2513,2563z"/>
	<path class="st0" d="M3188,2563c23-2,61-2,85,0c23,2,4,4-43,4S3164,2565,3188,2563z"/>
	<path class="st0" d="M2048,2553c18-2,45-2,60,0s0,4-33,4S2030,2555,2048,2553z"/>
	<path class="st0" d="M2808,2553c17-2,47-2,65,0c17,2,3,4-33,4S2790,2555,2808,2553z"/>
	<path class="st0" d="M2207,2543c18-2,50-2,70,0c21,2,7,4-32,4C2207,2547,2190,2545,2207,2543z"/>
	<path class="st0" d="M2365,2540c3-5,35-10,71-10c41,0,63,4,59,10c-3,6-35,10-71,10C2383,2550,2361,2546,2365,2540z"/>
	<path class="st0" d="M2978,2543c18-2,45-2,60,0s0,4-33,4S2960,2545,2978,2543z"/>
	<path class="st0" d="M3125,2540c3-5,22-10,41-10c21,0,33,4,29,10c-3,6-22,10-41,10C3133,2550,3121,2546,3125,2540z"/>
	<path class="st0" d="M850,2529c0-5,5-7,10-4c6,3,10,8,10,11c0,2-4,4-10,4C855,2540,850,2535,850,2529z"/>
	<path class="st0" d="M2568,2533c23-2,59-2,80,0c20,2,1,4-43,4S2544,2535,2568,2533z"/>
	<path class="st0" d="M2080,2520c0-6,62-10,162-10c89,0,159,2,157,4C2388,2523,2080,2529,2080,2520z"/>
	<path class="st0" d="M2743,2523c20-2,54-2,75,0c20,2,3,4-38,4S2722,2525,2743,2523z"/>
	<path class="st0" d="M2910,2518c0-4,62-7,138-7c75,1,130,3,122,5C3135,2523,2910,2525,2910,2518z"/>
	<path class="st0" d="M2488,2503c23-2,61-2,85,0c23,2,4,4-43,4S2464,2505,2488,2503z"/>
	<path class="st0" d="M3298,2503c6-2,18-2,25,0c6,3,1,5-13,5S3291,2506,3298,2503z"/>
	<path class="st0" d="M2043,2493c15-2,37-2,50,0c12,2,0,4-28,4C2038,2497,2027,2495,2043,2493z"/>
	<path class="st0" d="M2728,2493c45-2,119-2,165,0c45,1,8,3-83,3S2682,2494,2728,2493z"/>
	<path class="st0" d="M2198,2483c23-2,61-2,85,0c23,2,4,4-43,4S2174,2485,2198,2483z"/>
	<path class="st0" d="M3073,2483c15-2,39-2,55,0c15,2,2,4-28,4S3057,2485,3073,2483z"/>
	<path class="st0" d="M1921,2464c0-24-19-112-26-125c-13-19-45-8-71,26c-34,45-43,44-39-2c20-199,26-330,24-556l-1-265l-37-6
		c-20-3-70-8-111-11c-121-10-202-25-248-48c-85-41-162-156-223-329l-24-68l-40-1c-40,0-56-2-220-19c-49-5-93-6-98-1
		c-4,4-11,40-14,79l-6,72h-38h-39l-2,178c0,97-4,155-7,127l-6-50l-7,40c-11,57-10,183,1,190c6,3,12-13,14-35l4-40l-1,42
		c-1,33-5,44-19,46c-26,5-78-18-70-31c3-6,1-7-5-3c-12,7-79-26-155-75c-31-20-37-30-37-59v-35l-177,5c-98,3-179,4-181,4
		c-2-1,1-17,6-35l8-34l74-3c68-3,75-1,97,23c19,20,33,25,69,25h44l-16-25c-16-24-16-25,7-25c42,0,70,12,65,26c-3,8-1,14,4,14
		c6,0,10-16,10-36c0-31-4-37-35-50c-19-7-49-15-67-15c-24-1-27-3-10-6c26-5,27-7,5-40c-16-25-16-25,2-20c11,3,37,8,58,12
		c33,5,37,9,33,30c-3,14,0,27,5,31c6,4,9-10,7-37c-3-42-4-43-53-57c-29-8-91-13-147-12l-98,1l23-53l23-53l145-8c79-4,215-6,301-5
		l157,3l3-120c5-166,3-168-128-175c-118-7-221-1-202,11c7,5,47,9,88,10c144,3,138,17-7,18c-81,0-143,5-143,10s12,12,28,14
		c15,2,0,5-33,6c-52,1-61-2-62-17c-2-30,149-224,263-339l104-105l162,6c90,4,199,11,243,17c44,5,108,9,143,9s105,4,155,10
		c51,5,142,14,202,20c61,5,178,16,260,25c83,8,209,19,280,25c181,15,335,29,510,46c156,15,275,26,480,44c66,6,175,18,242,26
		c68,8,137,14,155,14c29,1,39,9,91,80c153,208,258,426,327,673l19,68l-112-6c-62-3-168-8-237-11s-168-9-220-13c-52-5-142-10-200-11
		s-175-7-260-14s-160-9-166-5c-6,5-15,5-20,0c-8-8-193-18-484-27c-52-1-132-6-177-9l-83-7v36c0,25-4,36-15,36c-13,0-15,44-16,333
		c-2,313-13,716-17,580c-2-60-13-81-26-48c-3,8-1,15,5,15s8,17,5,41C1931,2474,1921,2496,1921,2464z M610,1635c7-8,18-15,25-15
		c17,0,35-44,25-61c-11-16-19-9-25,22c-3,12-10,26-17,30s-22,15-33,23c-17,13-17,15-4,16C590,1650,603,1643,610,1635z M493,1584
		c-5-14,1-15,51-9c31,4,56,5,56,2c0-25-14-33-60-31c-29,2-48-1-45-7c4-5,24-9,47-9c36,0,40-2,35-20c-3-12-1-20,6-19c29,3,37-3,37-26
		c0-14-4-25-10-25c-5,0-10,9-10,20c0,25-37,27-43,3c-2-10-3-6-2,10c1,15-2,27-7,27c-4,0-8-4-8-10c0-16-19-11-40,10
		c-12,12-26,18-32,14c-7-4-2-12,13-21l24-13l-30,2c-27,3-30,7-33,40c-2,27,3,43,17,57C484,1604,502,1606,493,1584z M668,1368
		c1-42-10-60-18-28c-7,30-1,72,10,65C664,1403,667,1386,668,1368z M594,1388c-3-4-9-8-15-8c-5,0-9,4-9,8c0,5,7,9,15,9
		S597,1393,594,1388z M560,1381c0-5-9-7-20-4s-20,7-20,9s9,4,20,4S560,1386,560,1381z M563,1358c32-17,10-21-42-7c-27,7-48,16-45,21
		C482,1382,534,1373,563,1358z M615,1361c-3-6,3-14,12-20c16-10,16-10-4-8c-31,4-40,16-23,27C619,1372,623,1372,615,1361z M490,1310
		c0-5-4-10-10-10c-5,0-10,5-10,10c0,6,5,10,10,10C486,1320,490,1316,490,1310z M610,1281c0-13-7-18-27-18h-26l24,18
		C611,1304,610,1304,610,1281z M430,1255c0-19-4-35-10-35c-5,0-10,16-10,35s5,35,10,35C426,1290,430,1274,430,1255z M480,1280
		c0-5,15-10,34-10c37,0,56-23,22-28c-70-8-71-8-74,21c-2,15,1,27,7,27S480,1286,480,1280z M623,1250c-5-20-15-25-26-13
		c-5,4,18,30,30,33C627,1270,626,1261,623,1250z M1555,1065c33-32,31-43-7-41c-18,1-31,6-28,11c3,6,10,9,15,7c6-1-1,6-14,16
		c-28,22-61,17-68-10c-6-21-23-24-23-4c0,21,40,46,73,46C1519,1090,1541,1080,1555,1065z M2196,1013c-3-4-14-8-24-9
		c-73-10-266-34-273-34c-5,0-9,5-9,10c0,6,11,10,25,10s25,4,25,8c0,5,12,7,28,5c15-2,54,0,87,5C2130,1020,2206,1022,2196,1013z
		 M1600,966c0-38-10-49-33-40c-20,7-17,51,3,64C1595,1006,1600,1002,1600,966z M3096,929c71-5,143-12,159-14c17-2,36-4,43-4
		c6-1,12-6,12-12c0-8-25-9-87-4c-136,12-153,13-230,16c-40,2-73,6-73,10c0,10,33,28,41,23C2965,942,3026,935,3096,929z M2485,900
		c11-5,15-9,8-9c-11-1-263-31-293-36c-8-1-44-5-80-9c-36-5-78-10-95-12c-97-13-145-15-145-7c0,5,48,15,108,21c110,13,188,23,347,47
		C2442,911,2459,911,2485,900z M1851,819c-14-5-30-8-37-5c-6,2-28,1-48-4c-31-7-35-6-25,6c8,9,32,14,73,13
		C1864,829,1871,827,1851,819z M1088,778c8-10,3-13-21-14c-18,0-124-5-237-12c-188-10-236-10-199,2c11,3,256,23,425,35
		C1068,789,1082,784,1088,778z"/>
	<path class="st0" d="M2408,2473c23-2,61-2,85,0c23,2,4,4-43,4S2384,2475,2408,2473z"/>
	<path class="st0" d="M2585,2470c3-5,38-10,76-10c44,0,68,4,64,10c-3,6-38,10-76,10C2605,2480,2581,2476,2585,2470z"/>
	<path class="st0" d="M3283,2473c9-2,23-2,30,0c6,3-1,5-18,5C3279,2478,3273,2476,3283,2473z"/>
	<path class="st0" d="M2813,2463c20-2,54-2,75,0c20,2,3,4-38,4S2792,2465,2813,2463z"/>
	<path class="st0" d="M2068,2453c23-2,61-2,85,0c23,2,4,4-43,4S2044,2455,2068,2453z"/>
	<path class="st0" d="M2250,2450c0-6,78-10,202-10c111,0,199,2,197,4C2639,2453,2250,2459,2250,2450z"/>
	<path class="st0" d="M3017,2453c18-2,50-2,70,0c21,2,7,4-32,4C3017,2457,3000,2455,3017,2453z"/>
	<path class="st0" d="M3200,2450c0-6,44-10,117-10c64,0,114,2,112,4C3418,2453,3200,2460,3200,2450z"/>
	<path class="st0" d="M2763,2433c26-2,67-2,90,0s2,3-48,3C2756,2436,2737,2435,2763,2433z"/>
	<path class="st0" d="M2093,2423c43-2,110-2,150,0c40,1,5,3-78,3C2083,2426,2050,2424,2093,2423z"/>
	<path class="st0" d="M3022,2423c48-2,129-2,180,0c51,1,12,3-87,3S2974,2424,3022,2423z"/>
	<path class="st0" d="M2418,2413c29-2,74-2,100,0s2,3-53,3S2389,2415,2418,2413z"/>
	<path class="st0" d="M2668,2403c28-2,76-2,105,0c28,2,5,3-53,3S2639,2405,2668,2403z"/>
	<path class="st0" d="M2885,2400c3-5,40-10,81-10c48,0,73,4,69,10c-3,6-40,10-81,10C2906,2410,2881,2406,2885,2400z"/>
	<path class="st0" d="M2058,2393c23-2,61-2,85,0c23,2,4,4-43,4S2034,2395,2058,2393z"/>
	<path class="st0" d="M3158,2393c23-2,59-2,80,0c20,2,1,4-43,4S3134,2395,3158,2393z"/>
	<path class="st0" d="M2293,2383c31-2,83-2,115,0c31,2,5,3-58,3S2261,2385,2293,2383z"/>
	<path class="st0" d="M2500,2379c0-5,103-9,242-9c133,0,239,2,237,4C2969,2382,2500,2388,2500,2379z"/>
	<path class="st0" d="M3378,2383c12-2,32-2,45,0c12,2,2,4-23,4S3365,2385,3378,2383z"/>
	<path class="st0" d="M3113,2363c26-2,68-2,95,0c26,2,4,3-48,3S3086,2365,3113,2363z"/>
	<path class="st0" d="M2243,2353c76-2,198-2,270,0c73,1,11,3-138,3C2227,2356,2167,2354,2243,2353z"/>
	<path class="st0" d="M3433,2353c37-2,97-2,135,0c37,2,6,3-68,3S3395,2355,3433,2353z"/>
	<path class="st0" d="M2758,2343c34-2,88-2,120,0c31,2,3,3-63,3S2723,2345,2758,2343z"/>
	<path class="st0" d="M2030,2330c0-6,28-10,65-10s65,4,65,10s-28,10-65,10S2030,2336,2030,2330z"/>
	<path class="st0" d="M3048,2333c34-2,88-2,120,0c31,2,3,3-63,3S3013,2335,3048,2333z"/>
	<path class="st0" d="M3315,2330c3-5,35-10,71-10s64,4,64,10s-30,10-71,10C3335,2340,3311,2336,3315,2330z"/>
	<path class="st0" d="M2313,2323c37-2,97-2,135,0c37,2,6,3-68,3S2275,2325,2313,2323z"/>
	<path class="st0" d="M2668,2313c34-2,88-2,120,0c31,2,3,3-63,3S2633,2315,2668,2313z"/>
	<path class="st0" d="M2930,2310c0-6,43-10,121-10c67,0,118,4,115,9C3158,2322,2930,2323,2930,2310z"/>
	<path class="st0" d="M3333,2303c26-2,67-2,90,0s2,3-48,3C3326,2306,3307,2305,3333,2303z"/>
	<path class="st0" d="M2183,2293c43-2,110-2,150,0c40,1,5,3-78,3C2173,2296,2140,2294,2183,2293z"/>
	<path class="st0" d="M2623,2283c93-2,241-2,330,0c89,1,14,3-168,3C2604,2286,2531,2284,2623,2283z"/>
	<path class="st0" d="M3283,2273c31-2,83-2,115,0c31,2,5,3-58,3S3251,2275,3283,2273z"/>
	<path class="st0" d="M2068,2263c23-2,61-2,85,0c23,2,4,4-43,4S2044,2265,2068,2263z"/>
	<path class="st0" d="M2285,2260c4-6,72-10,171-10c108,0,163,3,159,10c-4,6-72,10-171,10C2336,2270,2281,2267,2285,2260z"/>
	<path class="st0" d="M2793,2253c48-2,125-2,170,0c45,1,6,3-88,3C2782,2256,2745,2254,2793,2253z"/>
	<path class="st0" d="M3218,2243c39-2,105-2,145,0c39,1,7,3-73,3S3178,2244,3218,2243z"/>
	<path class="st0" d="M2123,2233c59-2,155-2,215,0c59,1,10,3-108,3S2063,2234,2123,2233z"/>
	<path class="st0" d="M2663,2223c59-2,155-2,215,0c59,1,10,3-108,3S2603,2224,2663,2223z"/>
	<path class="st0" d="M3262,2213c92-2,245-2,340,0c95,1,20,3-167,3S3170,2214,3262,2213z"/>
	<path class="st0" d="M2068,2203c29-2,74-2,100,0s2,3-53,3S2039,2205,2068,2203z"/>
	<path class="st0" d="M2423,2193c82-2,212-2,290,0c78,1,12,3-148,3C2406,2196,2342,2194,2423,2193z"/>
	<path class="st0" d="M2985,2190c4-6,87-10,216-10c138,0,208,3,204,10c-4,6-87,10-216,10C3051,2200,2981,2197,2985,2190z"/>
	<path class="st0" d="M2025,2170c4-6,119-10,313-10c202,0,302,4,292,10C2609,2183,2017,2183,2025,2170z"/>
	<path class="st0" d="M2998,2163c72-2,192-2,265,0c72,1,13,3-133,3S2925,2164,2998,2163z"/>
	<path class="st0" d="M2053,2143c15-2,37-2,50,0c12,2,0,4-28,4C2048,2147,2037,2145,2053,2143z"/>
	<path class="st0" d="M2578,2133c139-2,364-2,500,0c136,1,22,2-253,2S2439,2134,2578,2133z"/>
	<path class="st0" d="M2333,2103c170-2,444-2,610,0c166,1,28,2-308,2C2300,2105,2164,2104,2333,2103z"/>
	<path class="st0" d="M3258,2103c7-3,16-2,19,1c4,3-2,6-13,5C3253,2109,3250,2106,3258,2103z"/>
	<path class="st0" d="M2488,2073c250-2,655-2,900,0c246,1,42,2-453,2S2239,2074,2488,2073z"/>
	<path class="st0" d="M3933,2073c15-2,37-2,50,0c12,2,0,4-28,4C3928,2077,3917,2075,3933,2073z"/>
	<path class="st0" d="M2283,2043c147-2,387-2,535,0c147,1,26,2-268,2S2135,2044,2283,2043z"/>
	<path class="st0" d="M2578,2013c128-2,335-2,460,0c125,1,20,2-233,2S2450,2014,2578,2013z"/>
	<path class="st0" d="M2020,1980c0-6,96-10,269-10c169,0,272,4,276,10c4,7-88,10-269,10C2119,1990,2020,1986,2020,1980z"/>
	<path class="st0" d="M2868,1983c89-2,235-2,325,0c89,1,16,3-163,3S2778,1984,2868,1983z"/>
	<path class="st0" d="M2885,1960c-4-7,85-10,259-10c171,0,266,4,266,10s-93,10-259,10C2988,1970,2889,1966,2885,1960z"/>
	<path class="st0" d="M3838,1963c6-2,18-2,25,0c6,3,1,5-13,5S3831,1966,3838,1963z"/>
	<path class="st0" d="M2393,1953c70-2,184-2,255,0c70,1,12,3-128,3S2322,1954,2393,1953z"/>
	<path class="st0" d="M2043,1943c15-2,37-2,50,0c12,2,0,4-28,4C2038,1947,2027,1945,2043,1943z"/>
	<path class="st0" d="M260,1932c-14-6-14-9,1-24c15-14,19-15,29-3c7,8,9,19,5,25C288,1941,282,1942,260,1932z"/>
	<path class="st0" d="M3223,1933c115-2,299-2,410,0c111,1,18,2-208,2C3200,1935,3109,1934,3223,1933z"/>
	<path class="st0" d="M2628,1923c56-2,148-2,205,0c56,1,10,3-103,3S2571,1924,2628,1923z"/>
	<path class="st0" d="M2122,1913c59-2,158-2,220,0c62,1,14,3-107,3S2063,1914,2122,1913z"/>
	<path class="st0" d="M3620,1910c0-12,156-12,185,0c13,6-16,9-82,9C3660,1920,3620,1916,3620,1910z"/>
	<path class="st0" d="M3198,1903c57-2,147-2,200,0c53,1,7,3-103,3S3141,1904,3198,1903z"/>
	<path class="st0" d="M2235,1890c-4-7,60-10,184-10c121,0,191,4,191,10s-68,10-184,10C2313,1900,2239,1896,2235,1890z"/>
	<path class="st0" d="M2753,1893c48-2,125-2,170,0c45,1,6,3-88,3C2742,1896,2705,1894,2753,1893z"/>
	<path class="st0" d="M2048,1883c17-2,47-2,65,0c17,2,3,4-33,4S2030,1885,2048,1883z"/>
	<path class="st0" d="M3663,1883c32-2,81-2,110,0s3,3-58,3C3655,1886,3631,1885,3663,1883z"/>
	<path class="st0" d="M1572,1872c-9-6-12-37-10-118c3-106,4-109,27-112c12-2,34-1,47,2c24,7,25,7,22,119l-3,112l-35,3
		C1601,1879,1579,1876,1572,1872z"/>
	<path class="st0" d="M3268,1873c46-2,118-2,160,0c42,1,5,3-83,3S3222,1874,3268,1873z"/>
	<path class="st0" d="M2608,1863c89-2,235-2,325,0c89,1,16,3-163,3S2518,1864,2608,1863z"/>
	<path class="st0" d="M2108,1853c45-2,119-2,165,0c45,1,8,3-83,3S2062,1854,2108,1853z"/>
	<path class="st0" d="M3643,1853c32-2,81-2,110,0s3,3-58,3C3635,1856,3611,1855,3643,1853z"/>
	<path class="st0" d="M2890,1840c0-13,258-12,266,1c3,5-53,9-130,9C2938,1850,2890,1846,2890,1840z"/>
	<path class="st0" d="M3283,1843c37-2,97-2,135,0c37,2,6,3-68,3S3245,1845,3283,1843z"/>
	<path class="st0" d="M2602,1833c37-2,100-2,140,0c40,1,10,3-67,3S2565,1835,2602,1833z"/>
	<path class="st0" d="M2020,1820c0-6,28-10,65-10s65,4,65,10s-28,10-65,10S2020,1826,2020,1820z"/>
	<path class="st0" d="M2283,1823c43-2,110-2,150,0c40,1,5,3-78,3C2273,1826,2240,1824,2283,1823z"/>
	<path class="st0" d="M3260,1820c-10-7,23-10,103-10c71,0,117,4,117,10C3480,1833,3280,1833,3260,1820z"/>
	<path class="st0" d="M3618,1823c34-2,88-2,120,0c31,2,3,3-63,3S3583,1825,3618,1823z"/>
	<path class="st0" d="M783,1765c0-33,2-45,4-27s2,45,0,60S783,1798,783,1765z"/>
	<path class="st0" d="M3013,1813c37-2,97-2,135,0c37,2,6,3-68,3S2975,1815,3013,1813z"/>
	<path class="st0" d="M2713,1803c31-2,83-2,115,0c31,2,5,3-58,3S2681,1805,2713,1803z"/>
	<path class="st0" d="M3938,1803c12-2,30-2,40,0c9,3-1,5-23,4C3933,1807,3925,1805,3938,1803z"/>
	<path class="st0" d="M556,1773c10-49,13-53,39-53c25,0,105,46,105,60s-30,20-91,20h-59L556,1773z"/>
	<path class="st0" d="M2207,1793c79-2,207-2,285,0c79,1,15,3-142,3S2129,1794,2207,1793z"/>
	<path class="st0" d="M3413,1793c64-2,170-2,235,0c64,1,11,3-118,3S3348,1794,3413,1793z"/>
	<path class="st0" d="M3063,1783c31-2,83-2,115,0c31,2,5,3-58,3S3031,1785,3063,1783z"/>
	<path class="st0" d="M2500,1770c0-13,188-12,196,1c3,5-40,9-95,9C2537,1780,2500,1776,2500,1770z"/>
	<path class="st0" d="M2783,1773c31-2,83-2,115,0c31,2,5,3-58,3S2751,1775,2783,1773z"/>
	<path class="st0" d="M3550,1770c0-12,156-12,185,0c13,6-16,9-82,9C3590,1780,3550,1776,3550,1770z"/>
	<path class="st0" d="M3788,1773c6-2,18-2,25,0c6,3,1,5-13,5S3781,1776,3788,1773z"/>
	<path class="st0" d="M3863,1773c15-2,37-2,50,0c12,2,0,4-28,4C3858,1777,3847,1775,3863,1773z"/>
	<path class="st0" d="M2278,1763c34-2,90-2,125,0c34,2,6,3-63,3S2243,1765,2278,1763z"/>
	<path class="st0" d="M3358,1763c29-2,74-2,100,0s2,3-53,3S3329,1765,3358,1763z"/>
	<path class="st0" d="M2058,1753c23-2,59-2,80,0c20,2,1,4-43,4S2034,1755,2058,1753z"/>
	<path class="st0" d="M2795,1750c-4-6,28-10,89-10c52,0,98,4,101,10c4,6-28,10-89,10C2844,1760,2798,1756,2795,1750z"/>
	<path class="st0" d="M3098,1753c28-2,76-2,105,0c28,2,5,3-53,3S3069,1755,3098,1753z"/>
	<path class="st0" d="M3785,1750c-3-5,1-10,10-10s13,5,10,10c-3,6-8,10-10,10S3788,1756,3785,1750z"/>
	<path class="st0" d="M2618,1743c29-2,74-2,100,0s2,3-53,3S2589,1745,2618,1743z"/>
	<path class="st0" d="M3593,1743c26-2,68-2,95,0c26,2,4,3-48,3S3566,1745,3593,1743z"/>
	<path class="st0" d="M2383,1733c31-2,83-2,115,0c31,2,5,3-58,3S2351,1735,2383,1733z"/>
	<path class="st0" d="M3373,1733c26-2,68-2,95,0c26,2,4,3-48,3S3346,1735,3373,1733z"/>
	<path class="st0" d="M2082,1723c37-2,100-2,140,0c40,1,10,3-67,3S2045,1725,2082,1723z"/>
	<path class="st0" d="M2968,1723c56-2,148-2,205,0c56,1,10,3-103,3S2911,1724,2968,1723z"/>
	<path class="st0" d="M3823,1723c31-2,83-2,115,0c31,2,5,3-58,3S3791,1725,3823,1723z"/>
	<path class="st0" d="M2678,1713c29-2,74-2,100,0s2,3-53,3S2649,1715,2678,1713z"/>
	<path class="st0" d="M3578,1713c23-2,61-2,85,0c23,2,4,4-43,4S3554,1715,3578,1713z"/>
	<path class="st0" d="M2205,1699c-5-7,20-9,74-8c45,1,84,6,87,10c3,5-31,9-75,9C2246,1710,2208,1705,2205,1699z"/>
	<path class="st0" d="M2463,1703c26-2,68-2,95,0c26,2,4,3-48,3S2436,1705,2463,1703z"/>
	<path class="st0" d="M3115,1699c-5-7,20-9,74-8c106,2,116,19,12,19C3156,1710,3118,1705,3115,1699z"/>
	<path class="st0" d="M3363,1703c26-2,67-2,90,0s2,3-48,3C3356,1706,3337,1705,3363,1703z"/>
	<path class="st0" d="M2058,1693c23-2,59-2,80,0c20,2,1,4-43,4S2034,1695,2058,1693z"/>
	<path class="st0" d="M2953,1693c26-2,67-2,90,0s2,3-48,3C2946,1696,2927,1695,2953,1693z"/>
	<path class="st0" d="M3773,1693c20-2,54-2,75,0c20,2,3,4-38,4S3752,1695,3773,1693z"/>
	<path class="st0" d="M2490,1680c-10-7,16-10,83-10c58,0,97,4,97,10C2670,1693,2510,1693,2490,1680z"/>
	<path class="st0" d="M2738,1683c23-2,61-2,85,0c23,2,4,4-43,4S2714,1685,2738,1683z"/>
	<path class="st0" d="M3345,1680c-4-6,22-10,69-10c44,0,76,4,76,10s-30,10-69,10S3348,1686,3345,1680z"/>
	<path class="st0" d="M3568,1683c23-2,61-2,85,0c23,2,4,4-43,4S3544,1685,3568,1683z"/>
	<path class="st0" d="M2333,1673c26-2,68-2,95,0c26,2,4,3-48,3S2306,1675,2333,1673z"/>
	<path class="st0" d="M3183,1673c20-2,54-2,75,0c20,2,3,4-38,4S3162,1675,3183,1673z"/>
	<path class="st0" d="M2123,1663c26-2,68-2,95,0c26,2,4,3-48,3S2096,1665,2123,1663z"/>
	<path class="st0" d="M2998,1663c23-2,59-2,80,0c20,2,1,4-43,4S2974,1665,2998,1663z"/>
	<path class="st0" d="M3763,1663c20-2,54-2,75,0c20,2,3,4-38,4S3742,1665,3763,1663z"/>
	<path class="st0" d="M2028,1653c7-3,16-2,19,1c4,3-2,6-13,5C2023,1659,2020,1656,2028,1653z"/>
	<path class="st0" d="M2643,1653c54-2,139-2,190,0c51,1,7,3-98,3C2631,1656,2589,1654,2643,1653z"/>
	<path class="st0" d="M3433,1653c48-2,125-2,170,0c45,1,6,3-88,3C3422,1656,3385,1654,3433,1653z"/>
	<path class="st0" d="M2388,1643c23-2,61-2,85,0c23,2,4,4-43,4S2364,1645,2388,1643z"/>
	<path class="st0" d="M3203,1643c20-2,54-2,75,0c20,2,3,4-38,4S3182,1645,3203,1643z"/>
	<path class="st0" d="M3918,1643c12-2,32-2,45,0c12,2,2,4-23,4S3905,1645,3918,1643z"/>
	<path class="st0" d="M2020,1631c0-8,280-4,305,4c6,2-61,4-147,4C2091,1640,2020,1636,2020,1631z"/>
	<path class="st0" d="M2790,1631c0-8,311-4,335,4c6,2-68,4-162,4C2868,1640,2790,1636,2790,1631z"/>
	<path class="st0" d="M3540,1629c0-11,94-10,125,2c12,5-8,8-52,8C3568,1640,3540,1636,3540,1629z"/>
	<path class="st0" d="M3758,1633c17-2,47-2,65,0c17,2,3,4-33,4S3740,1635,3758,1633z"/>
	<path class="st0" d="M2648,1623c23-2,61-2,85,0c23,2,4,4-43,4S2624,1625,2648,1623z"/>
	<path class="st0" d="M3387,1623c18-2,50-2,70,0c21,2,7,4-32,4C3387,1627,3370,1625,3387,1623z"/>
	<path class="st0" d="M2250,1610c-10-7,9-10,63-10c45,0,77,4,77,10C2390,1623,2270,1623,2250,1610z"/>
	<path class="st0" d="M2463,1613c26-2,67-2,90,0s2,3-48,3C2456,1616,2437,1615,2463,1613z"/>
	<path class="st0" d="M3035,1610c-4-6,19-10,65-10c39,0,69,4,66,8C3158,1621,3043,1622,3035,1610z"/>
	<path class="st0" d="M3218,1613c17-2,47-2,65,0c17,2,3,4-33,4S3200,1615,3218,1613z"/>
	<path class="st0" d="M2118,1603c23-2,59-2,80,0c20,2,1,4-43,4S2094,1605,2118,1603z"/>
	<path class="st0" d="M2883,1603c20-2,54-2,75,0c20,2,3,4-38,4S2862,1605,2883,1603z"/>
	<path class="st0" d="M42,1583c5-27,54-30,61-4c4,18,1,21-30,21C46,1600,39,1596,42,1583z"/>
	<path class="st0" d="M2028,1593c7-3,16-2,19,1c4,3-2,6-13,5C2023,1599,2020,1596,2028,1593z"/>
	<path class="st0" d="M2708,1593c23-2,59-2,80,0c20,2,1,4-43,4S2684,1595,2708,1593z"/>
	<path class="st0" d="M2342,1584c7-7,299-6,306,1c3,3-66,5-153,5S2339,1587,2342,1584z"/>
	<path class="st0" d="M2188,1573c23-2,59-2,80,0c20,2,1,4-43,4S2164,1575,2188,1573z"/>
	<path class="st0" d="M2021,1543c1-23,2-24,6-6c4,19,12,23,56,26l52,3l-57,2C2021,1570,2020,1570,2021,1543z"/>
	<path class="st0" d="M845,1519c-4-6-5-12-2-15c2-3,7,2,10,11C860,1532,854,1535,845,1519z"/>
	<path class="st0" d="M870,1496c-14-8-28-12-32-10c-5,3-8-6-8-19c0-22,5-25,33-25c32,0,34,2,35,34c1,19,0,34-1,34
		C896,1509,884,1503,870,1496z"/>
	<path class="st0" d="M780,1405c0-49,2-86,4-84c7,7,10,159,3,166C783,1490,780,1454,780,1405z"/>
	<path class="st0" d="M920,1375c-8-2-32-6-52-10c-32-5-38-10-38-30c0-27,7-30,30-14c13,9,12,10-2,5c-22-7-24,9-3,18c8,3,18-2,23-10
		c6-11,21-14,53-12c40,3,44,6,47,31C981,1380,969,1385,920,1375z M950,1340c-14-4-34-8-45-8l-20-1l20,9c11,5,31,8,45,8h25L950,1340z
		"/>
	<path class="st0" d="M111,1340c10-28,15-30,59-30s50,3,64,30l14,30h-73h-74L111,1340z"/>
	<path class="st0" d="M927,1269c-90-10-97-13-97-48c0-37,22-45,93-36c83,10,87,13,87,50c0,19-3,35-7,37C998,1274,964,1273,927,1269z
		"/>
	<path class="st0" d="M210,1105c0-4,12-29,28-56c22-41,32-49,56-49c28,0,29,1,23,45c-2,26-6,47-8,49C301,1101,210,1111,210,1105z"/>
	<path class="st0" d="M438,1083c12-8,22-23,22-32c0-35,23-49,84-53c44-2,60,1,64,11c3,10-1,12-17,8c-11-3-23-2-26,3c-3,4,3,10,13,12
		c10,3,18,15,19,26c2,25-8,28-112,36C419,1098,416,1098,438,1083z"/>
	<path class="st0" d="M3393,583c9-2,23-2,30,0c6,3-1,5-18,5C3389,588,3383,586,3393,583z"/>
	<path class="st0" d="M3259,576c-2-2-60-6-129-9s-132-8-140-11s-49-10-90-15s-124-16-185-25c-60-8-126-17-145-20c-19-2-57-9-85-15
		c-27-5-102-15-165-21s-151-15-195-20s-100-11-125-14c-25-2-83-9-130-15c-189-22-573-46-700-42c-36,1-130,6-209,12
		c-79,5-145,8-147,6c-8-8,196-134,303-188c129-64,338-137,493-171c96-21,130-23,395-23s299,2,395,23c156,34,360,105,495,172
		c134,67,321,190,317,209c-1,7,4,11,12,9s47,24,86,57c61,52,68,61,50,65c-26,6-28,22-3,31c11,5-4,8-38,8C3288,580,3261,578,3259,576
		z"/>
</g>
</svg>
